#!OML:ASF F:\VICON\USERDATA\INSTALL\rory3\rory3.ASF
:FULLY-SPECIFIED
:DEGREES
275
root -0.820875 18.1006 -11.9626 2.66147 3.47551 -6.03513
lowerback 6.78161 1.12172 1.29108
upperback -0.406531 1.82427 5.02531
thorax -4.35983 0.938968 4.31666
lowerneck -15.9836 -5.96269 -15.1241
upperneck 28.5348 -6.35421 7.30957
head 12.9704 -3.52071 4.38887
rclavicle -1.38155e-014 -3.33958e-014
rhumerus -34.6285 -16.5575 -70.3497
rradius 31.7478
rwrist -14.8632
rhand -12.3974 17.271
rfingers 7.12502
rthumb 13.6741 -12.2598
lclavicle -1.38155e-014 -3.33958e-014
lhumerus -37.4604 9.80098 82.1997
lradius 31.0224
lwrist -6.99084
lhand 0.698472 29.9337
lfingers 7.12502
lthumb 26.2592 58.1366
rfemur -10.9787 3.33032 29.8964
rtibia 28.9675
rfoot -16.4262 -8.08326
rtoes 21.5448
lfemur -27.888 3.46587 -14.3526
ltibia 60.8405
lfoot -10.5872 -1.92842
ltoes 1.69171
276
root -0.835726 18.0819 -11.81 2.5963 3.15771 -6.60534
lowerback 6.64464 1.31374 1.56553
upperback -0.256568 2.09812 5.24259
thorax -4.1438 1.07012 4.36328
lowerneck -16.0684 -5.99643 -14.9623
upperneck 28.4716 -6.35361 7.05673
head 12.9466 -3.53054 4.25698
rclavicle 6.95746e-016 -2.54444e-014
rhumerus -34.078 -16.2712 -70.4277
rradius 32.1604
rwrist -15.0399
rhand -12.5554 17.033
rfingers 7.12502
rthumb 13.5217 -12.508
lclavicle 6.95746e-016 -2.54444e-014
lhumerus -37.509 9.7038 82.4794
lradius 31.5329
lwrist -6.92029
lhand 0.663032 29.7843
lfingers 7.12502
lthumb 26.2253 57.9923
rfemur -10.2761 4.24657 30.739
rtibia 28.7877
rfoot -16.3761 -8.92776
rtoes 19.3671
lfemur -28.7395 3.77188 -13.7213
ltibia 59.7835
lfoot -11.3504 -1.12371
ltoes 1.61461
277
root -0.823585 18.0785 -11.6683 2.77219 3.25229 -6.35778
lowerback 6.58 1.38086 1.47914
upperback -0.346765 2.1781 5.1279
thorax -4.20495 1.11122 4.28373
lowerneck -15.7886 -6.03433 -15.1372
upperneck 28.3368 -6.43887 7.19281
head 12.8575 -3.57153 4.32634
rclavicle 1.97791e-014 7.15625e-015
rhumerus -33.7582 -16.1119 -70.3868
rradius 32.42
rwrist -15.1831
rhand -12.5257 17.4298
rfingers 7.12502
rthumb 13.5504 -12.1093
lclavicle 1.97791e-014 7.15625e-015
lhumerus -37.6102 9.48229 82.7319
lradius 31.9181
lwrist -6.90141
lhand 0.898394 30.3571
lfingers 7.12502
lthumb 26.4506 58.5314
rfemur -9.79998 3.80445 30.4268
rtibia 28.566
rfoot -16.8571 -8.67046
rtoes 21.4282
lfemur -29.672 3.3146 -14.1946
ltibia 58.5131
lfoot -11.9807 0.405168
ltoes 0.900566
278
root -0.824027 18.0684 -11.5275 2.88843 3.18563 -6.42948
lowerback 6.5141 1.4542 1.5606
upperback -0.34169 2.27871 5.12004
thorax -4.16554 1.1592 4.21999
lowerneck -15.6317 -6.10057 -15.4515
upperneck 28.2092 -6.54339 7.45239
head 12.8114 -3.61899 4.46363
rclavicle -1.85864e-014 -1.43125e-014
rhumerus -33.401 -15.7799 -70.4864
rradius 32.8302
rwrist -15.5222
rhand -12.4369 17.9124
rfingers 7.12502
rthumb 13.6359 -11.6209
lclavicle -1.85864e-014 -1.43125e-014
lhumerus -37.4627 9.38192 82.9063
lradius 32.1528
lwrist -6.67821
lhand 0.957112 30.7515
lfingers 7.12502
lthumb 26.5068 58.9173
rfemur -9.26711 3.93182 30.5847
rtibia 28.3138
rfoot -17.3423 -8.83873
rtoes 23.0384
lfemur -30.5431 3.00415 -14.1873
ltibia 57.1583
lfoot -9.72673 1.93385
ltoes 11.6936
279
root -0.828052 18.0577 -11.3903 2.96195 3.11578 -6.72822
lowerback 6.55216 1.50657 1.85267
upperback -0.296903 2.37097 5.13033
thorax -4.13488 1.19822 4.05537
lowerneck -15.7063 -6.12799 -15.5304
upperneck 28.1168 -6.60466 7.65081
head 12.808 -3.6262 4.54228
rclavicle 1.5704e-014 -7.95139e-016
rhumerus -32.924 -15.5494 -70.7039
rradius 33.2143
rwrist -15.7121
rhand -12.4241 18.0363
rfingers 7.12502
rthumb 13.6482 -11.4962
lclavicle 1.5704e-014 -7.95139e-016
lhumerus -37.3648 9.19611 83.0172
lradius 32.5737
lwrist -6.27381
lhand 0.817495 30.9481
lfingers 7.12502
lthumb 26.3732 59.134
rfemur -8.67814 4.22532 31.0483
rtibia 28.0218
rfoot -17.4905 -9.23304
rtoes 22.3442
lfemur -31.335 2.78631 -13.8564
ltibia 55.6554
lfoot -8.05697 3.11945
ltoes 19.4888
280
root -0.828916 18.0494 -11.2505 3.03725 3.10528 -6.86708
lowerback 6.76331 1.54831 2.03178
upperback -0.449279 2.45731 5.05581
thorax -4.40714 1.23665 3.86159
lowerneck -15.5215 -6.04856 -15.4023
upperneck 28.1083 -6.58558 7.7402
head 12.7586 -3.59665 4.56256
rclavicle -1.32192e-014 -7.15625e-015
rhumerus -32.7604 -15.3427 -70.8699
rradius 33.5914
rwrist -15.7544
rhand -12.606 17.6534
rfingers 7.12502
rthumb 13.4729 -11.8909
lclavicle -1.32192e-014 -7.15625e-015
lhumerus -37.6369 9.02796 82.99
lradius 32.8894
lwrist -6.26052
lhand 0.867437 30.9588
lfingers 7.12502
lthumb 26.421 59.1375
rfemur -8.00868 4.36697 31.3119
rtibia 27.5702
rfoot -17.4247 -9.52772
rtoes 20.3566
lfemur -32.0153 2.46893 -13.6788
ltibia 54.0271
lfoot -13.2796 2.24538
ltoes 1.3568
281
root -0.82533 18.0487 -11.104 3.18643 3.11971 -6.81827
lowerback 6.80484 1.59106 2.09561
upperback -0.566257 2.5224 4.92524
thorax -4.54714 1.26583 3.67964
lowerneck -15.5443 -6.02944 -15.2631
upperneck 28.222 -6.59428 7.72389
head 12.8033 -3.58973 4.53457
rclavicle -1.00883e-014 0
rhumerus -32.5401 -14.9715 -71.0907
rradius 34.1032
rwrist -16.0592
rhand -12.9611 17.0423
rfingers 7.12502
rthumb 13.1307 -12.5242
lclavicle -1.00883e-014 0
lhumerus -37.6811 8.87222 83.0114
lradius 32.9894
lwrist -6.39932
lhand 1.11792 31.1371
lfingers 7.12502
lthumb 26.6607 59.2796
rfemur -7.30154 4.3926 31.333
rtibia 26.9236
rfoot -17.3851 -9.70258
rtoes 19.1238
lfemur -32.6369 2.03221 -13.6924
ltibia 52.2626
lfoot -13.4648 3.03912
ltoes 1.95287
282
root -0.815629 18.0561 -10.9542 3.35512 2.93344 -6.83217
lowerback 6.65835 1.69506 2.23459
upperback -0.523131 2.6582 4.84493
thorax -4.4157 1.32861 3.50588
lowerneck -15.7946 -6.11659 -15.2355
upperneck 28.2935 -6.67595 7.67908
head 12.8945 -3.62467 4.49658
rclavicle -1.34677e-014 -6.36111e-015
rhumerus -32.0747 -14.4749 -71.3117
rradius 34.6302
rwrist -16.607
rhand -13.0969 16.7428
rfingers 7.12502
rthumb 12.9998 -12.8322
lclavicle -1.34677e-014 -6.36111e-015
lhumerus -37.4592 8.7615 83.1573
lradius 33.154
lwrist -6.46171
lhand 1.20504 31.4176
lfingers 7.12502
lthumb 26.7441 59.5473
rfemur -6.51152 4.3599 31.3567
rtibia 26.1136
rfoot -17.2637 -9.70147
rtoes 19.2759
lfemur -33.142 1.75293 -13.6376
ltibia 50.3707
lfoot -13.7097 3.73326
ltoes 2.89592
283
root -0.809822 18.0695 -10.8032 3.43979 2.72426 -6.94299
lowerback 6.72801 1.80184 2.36173
upperback -0.580556 2.8182 4.84591
thorax -4.51665 1.40473 3.41605
lowerneck -15.7402 -6.1515 -15.2923
upperneck 28.2629 -6.7025 7.63359
head 12.8762 -3.64829 4.48292
rclavicle 9.19379e-015 -1.98785e-014
rhumerus -31.7557 -14.0447 -71.3481
rradius 34.8594
rwrist -16.8955
rhand -13.0093 17.0523
rfingers 7.12502
rthumb 13.0842 -12.5173
lclavicle 9.19379e-015 -1.98785e-014
lhumerus -37.5895 8.61555 83.3323
lradius 33.501
lwrist -6.41489
lhand 1.0679 31.3491
lfingers 7.12502
lthumb 26.6128 59.4988
rfemur -5.60878 4.54286 31.5249
rtibia 25.2329
rfoot -17.2795 -9.8231
rtoes 19.7629
lfemur -33.6052 1.58414 -13.4408
ltibia 48.3724
lfoot -13.7226 4.20562
ltoes 2.25554
284
root -0.810993 18.0787 -10.6514 3.50711 2.67268 -7.06657
lowerback 6.53551 1.86837 2.4923
upperback -0.470417 2.899 4.82461
thorax -4.28883 1.44189 3.31801
lowerneck -15.6925 -6.16698 -15.319
upperneck 28.0398 -6.73143 7.69001
head 12.782 -3.65237 4.49896
rclavicle -1.72446e-014 -1.66979e-014
rhumerus -31.2074 -13.9947 -71.4337
rradius 34.9735
rwrist -16.8184
rhand -12.9488 17.7097
rfingers 7.12502
rthumb 13.1426 -11.8561
lclavicle -1.72446e-014 -1.66979e-014
lhumerus -37.4222 8.42946 83.5101
lradius 33.7892
lwrist -6.21918
lhand 1.13652 31.5079
lfingers 7.12502
lthumb 26.6785 59.6477
rfemur -4.69805 4.84666 31.783
rtibia 24.3869
rfoot -17.4782 -10.1128
rtoes 19.8634
lfemur -34.0096 1.26086 -13.146
ltibia 46.284
lfoot -13.462 4.43308
ltoes 1.63627
285
root -0.809545 18.0732 -10.4966 3.56727 2.55866 -7.20189
lowerback 6.40837 1.93253 2.57982
upperback -0.481671 2.98464 4.81993
thorax -4.2277 1.48267 3.25883
lowerneck -15.3869 -6.13937 -15.3568
upperneck 27.8661 -6.75392 7.78913
head 12.6556 -3.65642 4.54036
rclavicle -2.32578e-014 -4.77083e-015
rhumerus -31.0614 -13.6458 -71.5342
rradius 35.5047
rwrist -17.0195
rhand -12.8502 18.0697
rfingers 7.12502
rthumb 13.2376 -11.49
lclavicle -2.32578e-014 -4.77083e-015
lhumerus -37.4737 8.44599 83.5422
lradius 33.9294
lwrist -6.11614
lhand 1.2788 31.9618
lfingers 7.12502
lthumb 26.8147 60.0807
rfemur -3.78364 4.94813 32.0034
rtibia 23.5458
rfoot -17.3713 -10.2495
rtoes 18.5004
lfemur -34.1202 0.786139 -12.7456
ltibia 44.107
lfoot -13.2365 4.44634
ltoes 4.00316
286
root -0.813972 18.067 -10.3591 3.63779 2.37852 -7.40152
lowerback 6.57036 2.00577 2.63921
upperback -0.518055 3.10012 4.85189
thorax -4.36071 1.53839 3.24171
lowerneck -15.3508 -6.12242 -15.3282
upperneck 27.8357 -6.76288 7.85626
head 12.6375 -3.64926 4.56057
rclavicle -4.75095e-014 -7.95139e-016
rhumerus -30.7318 -13.199 -71.7011
rradius 35.9629
rwrist -17.2817
rhand -12.8473 17.963
rfingers 7.12502
rthumb 13.2404 -11.5965
lclavicle -4.75095e-014 -7.95139e-016
lhumerus -37.4593 8.43441 83.5725
lradius 34.0211
lwrist -5.99563
lhand 1.2707 32.2774
lfingers 7.12502
lthumb 26.8069 60.3975
rfemur -2.97939 5.36342 32.3497
rtibia 22.6763
rfoot -17.0616 -10.6683
rtoes 16.8083
lfemur -34.3108 0.4118 -12.2139
ltibia 41.8546
lfoot -12.5406 4.42746
ltoes 4.989
